<?xml version="1.0" encoding="UTF-8"?>
<svg width="24px" height="24px" viewBox="0 0 24 24" version="1.1" xmlns="http://www.w3.org/2000/svg" xmlns:xlink="http://www.w3.org/1999/xlink">
    <!-- Generator: sketchtool 50.2 (55047) - http://www.bohemiancoding.com/sketch -->
    <title>BF69CA5F-AB39-4D5D-AC0F-120C5FA8DA6C</title>
    <desc>Created with sketchtool.</desc>
    <defs></defs>
    <g id="symbol_24px" stroke="none" stroke-width="1" fill="none" fill-rule="evenodd">
        <g id="24px/stroke_green/saldo">
            <g id="saldo">
                <rect id="Rectangle-path" x="0" y="0" width="24" height="24"></rect>
                <path d="M22.1770487,7.2648 C22.1540487,7.2478 22.1370487,7.2268 22.1130487,7.2118 C21.8980487,7.0728 21.6440487,6.9918 21.3820487,6.9698 C21.1470487,6.9498 20.9080487,6.9768 20.6850487,7.0538 C19.6400487,7.4148 18.5510487,7.5418 17.3570487,7.4398 C15.7630487,7.3048 14.1640487,6.7938 12.4760487,6.2528 C10.6840487,5.6788 8.83104868,5.0848 6.85504868,4.9168 C6.32004868,4.8718 5.80004868,4.8628 5.29104868,4.8838 C5.66404868,4.8478 6.04504868,4.8298 6.43604868,4.8298 C8.37004868,4.8298 10.2350487,5.2518 12.0370487,5.6608 C13.7390487,6.0448 15.3480487,6.4068 16.9060487,6.4068 C18.0750487,6.4068 19.1140487,6.1948 20.0840487,5.7588 C20.2910487,5.6648 20.5200487,5.6198 20.7500487,5.6198 C21.0050487,5.6198 21.2620487,5.6768 21.4860487,5.7938 C21.9140487,6.0138 22.1770487,6.4078 22.1770487,6.8348 L22.1770487,7.2648 Z M17.6120487,19.1908 C15.6770487,19.1908 13.8120487,18.7688 12.0090487,18.3608 C10.3080487,17.9758 8.69904868,17.6138 7.14004868,17.6138 C5.97104868,17.6138 4.93204868,17.8268 3.96304868,18.2628 C3.75504868,18.3558 3.52704868,18.4008 3.29704868,18.4008 C3.04104868,18.4008 2.78504868,18.3448 2.56204868,18.2268 C2.13304868,18.0078 1.87004868,17.6128 1.87004868,17.1858 L1.87004868,16.7568 C1.89404868,16.7728 1.91004868,16.7948 1.93504868,16.8098 C2.14904868,16.9488 2.40404868,17.0298 2.66404868,17.0518 C2.90104868,17.0718 3.13804868,17.0448 3.36304868,16.9688 C4.40604868,16.6058 5.49604868,16.4788 6.69004868,16.5818 C8.28304868,16.7168 9.88204868,17.2268 11.5720487,17.7678 C13.3640487,18.3428 15.2160487,18.9358 17.1930487,19.1038 C17.7270487,19.1488 18.2470487,19.1578 18.7560487,19.1378 C18.3830487,19.1728 18.0020487,19.1908 17.6120487,19.1908 Z M21.5160487,5.6128 C21.2990487,5.4998 21.0500487,5.4438 20.8030487,5.4438 C20.5790487,5.4438 20.3580487,5.4888 20.1560487,5.5788 C19.2160487,6.0018 18.2090487,6.2078 17.0760487,6.2078 C15.5640487,6.2078 14.0040487,5.8568 12.3540487,5.4828 C10.6060487,5.0868 8.79804868,4.6788 6.92204868,4.6788 C6.63104868,4.6788 6.34604868,4.6938 6.06604868,4.7178 C5.98304868,4.7238 5.89504868,4.7228 5.81204868,4.7298 C5.85604868,4.7278 5.90204868,4.7298 5.94704868,4.7278 C4.73604868,4.8458 3.61704868,5.1828 2.55104868,5.7578 C2.09704868,6.0048 1.81404868,6.4838 1.81404868,7.0078 L1.81404868,16.9918 C1.81404868,17.1198 1.83204868,17.2458 1.86504868,17.3668 L1.86504868,17.4318 C1.86504868,17.8348 2.11904868,18.2058 2.53504868,18.4128 C2.75204868,18.5218 3.00104868,18.5768 3.24804868,18.5768 C3.47204868,18.5768 3.69304868,18.5338 3.89504868,18.4468 C4.83304868,18.0348 5.84204868,17.8348 6.97504868,17.8348 C8.48704868,17.8348 10.0470487,18.1768 11.6970487,18.5398 C13.3640487,18.9058 15.0850487,19.2798 16.8670487,19.3138 C16.9380487,19.3148 17.0070487,19.3208 17.0770487,19.3208 C17.0860487,19.3208 17.0930487,19.3198 17.1020487,19.3198 C17.1110487,19.3198 17.1190487,19.3208 17.1280487,19.3208 C17.1580487,19.3208 17.1860487,19.3168 17.2150487,19.3158 C17.4290487,19.3138 17.6420487,19.3048 17.8510487,19.2888 C17.9800487,19.2808 18.1130487,19.2828 18.2390487,19.2708 C18.1690487,19.2738 18.0980487,19.2708 18.0280487,19.2728 C19.2460487,19.1578 20.3750487,18.8198 21.4480487,18.2408 C21.9030487,17.9948 22.1870487,17.5158 22.1860487,16.9928 L22.1860487,7.0388 L22.1860487,7.0088 L22.1860487,6.6228 C22.1860487,6.2078 21.9320487,5.8268 21.5160487,5.6128 Z" id="Fill-1"></path>
                <path d="M5.76397822,4.23280648 C5.81235086,4.22814406 5.85044442,4.22612437 5.92141561,4.2235575 C5.99075642,4.22113762 6.00801862,4.22038299 6.02501512,4.21917837 C6.35101485,4.19239982 6.63937302,4.1785 6.92194868,4.1785 C8.53173644,4.1785 9.78157308,4.38807206 12.4641971,4.99580614 C14.8420703,5.53334961 15.8599186,5.7075 17.0769487,5.7075 C18.1392054,5.7075 19.0764418,5.51601668 19.9526163,5.12215771 C20.2163515,5.00406734 20.5064913,4.9445 20.8029487,4.9445 C21.1342269,4.9445 21.4613218,5.02032346 21.7468824,5.16902552 C22.3214653,5.46459726 22.6859487,6.01368908 22.6859487,6.6225 L22.6859487,7.0395 L22.6859478,16.9915458 C22.6872966,17.6983243 22.303639,18.3462627 21.6857072,18.6803533 C20.6709605,19.228865 19.6020437,19.5747946 18.4554664,19.7278378 C18.4049301,19.7495026 18.3475126,19.7640554 18.2830942,19.769635 C18.210256,19.7759438 18.1550038,19.7782841 18.0346342,19.7816505 C17.9463375,19.7842174 17.9185836,19.7852661 17.8891145,19.7870412 C17.6619248,19.8044338 17.4385382,19.8144322 17.2321798,19.816203 C17.1862451,19.8199701 17.1862451,19.8199701 17.1279487,19.8215 C17.0352836,19.8215 17.000745,19.8202912 16.9396173,19.8173797 C16.8852468,19.8149876 16.8852468,19.8149876 16.8581357,19.8144037 C15.327897,19.7843654 14.1121597,19.5816837 11.5895178,19.0278222 C9.20696575,18.5036608 8.19200105,18.3345 6.97494868,18.3345 C5.90849027,18.3345 4.96809398,18.5212454 4.09273113,18.905719 C3.82946147,19.0191074 3.54150339,19.0765 3.24794868,19.0765 C2.9186173,19.0765 2.59292233,19.0026171 2.31320315,18.8601432 C1.73437009,18.5721181 1.36594868,18.0334413 1.36594868,17.4325 C1.33154343,17.2865209 1.31394868,17.1394227 1.31394868,16.9915 L1.31394868,7.0085 C1.31394868,6.30150253 1.69607362,5.65338867 2.31375119,5.31734395 C3.35905056,4.75403829 4.4553876,4.40518232 5.63452931,4.25985602 C5.67395577,4.24658306 5.71708836,4.23732599 5.76397822,4.23280648 Z M17.9805441,18.7757523 C19.1396318,18.665363 20.2028341,18.3451636 21.2101497,17.8006686 C21.5036798,17.6419688 21.6865977,17.3330489 21.6859487,16.9925 L21.6859487,6.6225 C21.6859487,6.40396028 21.5430866,6.18873945 21.2872264,6.05711906 C21.1459909,5.98357949 20.9774059,5.9445 20.8029487,5.9445 C20.6447207,5.9445 20.4938848,5.97546746 20.3619496,6.03454233 C19.354381,6.4874664 18.2774021,6.7075 17.0769487,6.7075 C15.7594514,6.7075 14.6957247,6.52549998 12.2434758,5.97114304 C9.63239269,5.37961621 8.43298465,5.1785 6.92194868,5.1785 C6.66945162,5.1785 6.40753197,5.1911254 6.10199919,5.21619867 C6.08214391,5.21763399 6.06403935,5.21870172 6.04313592,5.21967167 C4.8468177,5.33711662 3.7935483,5.65585078 2.78990014,6.19670633 C2.49696422,6.35607896 2.31394868,6.66648766 2.31394868,7.0085 L2.31394868,16.9915 C2.31394868,17.0720428 2.32519973,17.1525682 2.34730654,17.2312424 L2.36594868,17.3665 L2.36594868,17.4325 C2.36594868,17.6351799 2.50513456,17.8386865 2.76284977,17.9669488 C2.90217616,18.037902 3.07232594,18.0765 3.24794868,18.0765 C3.40764831,18.0765 3.56096185,18.0459433 3.69387382,17.988713 C4.69627091,17.5484278 5.77354996,17.3345 6.97494868,17.3345 C8.28989632,17.3345 9.34943162,17.5110892 11.8041728,18.0511323 C14.2637635,18.5911504 15.4340615,18.7862567 16.8750908,18.814551 C16.9205395,18.8155679 16.9205395,18.8155679 16.9600328,18.8172571 C17.0302502,18.8204946 17.0491216,18.82124 17.0666804,18.8214397 C17.1172125,18.8207933 17.1246955,18.8209371 17.1299478,18.8211054 C17.1677969,18.8181959 17.1677969,18.8181959 17.210276,18.8165218 C17.4061879,18.8146909 17.6073033,18.8056892 17.8200004,18.7894587 C17.8528755,18.7874199 17.8811313,18.7860684 17.9189471,18.7847357 C17.9387124,18.7807983 17.9592435,18.7777809 17.9805441,18.7757523 Z" id="Stroke-3" fill="#42B549" fill-rule="nonzero"></path>
                <path d="M17.2674513,8.91987231 C17.3211458,8.93826084 17.4094085,8.96209952 17.5287672,8.98475898 C18.345934,9.13989273 19.3138834,9.02154903 20.3117149,8.43195176 C20.490021,8.3265945 20.5491577,8.09663991 20.4438004,7.9183338 C20.3384432,7.7400277 20.1084886,7.68089098 19.9301825,7.78624824 C19.1025283,8.27529139 18.3180498,8.37120352 17.6686513,8.24791949 C17.5855831,8.23214953 17.5315608,8.21755878 17.510446,8.21032769 C17.3145107,8.14322655 17.1012775,8.2476673 17.0341764,8.44360263 C16.9670752,8.63953797 17.071516,8.85277117 17.2674513,8.91987231 Z" id="Stroke-5" fill="#42B549" fill-rule="nonzero"></path>
                <path d="M6.77922154,14.8822878 C6.72555319,14.8638786 6.63734901,14.840024 6.51805711,14.8173541 C5.70168228,14.6622126 4.73362961,14.7805461 3.73406664,15.3699805 C3.5556679,15.4751808 3.49632887,15.7050833 3.60152919,15.883482 C3.70672952,16.0618808 3.93663199,16.1212198 4.11503073,16.0160195 C4.94462642,15.5268135 5.72933939,15.4308912 6.37803525,15.5541674 C6.46096402,15.569927 6.51485546,15.5845018 6.53587583,15.5917122 C6.73177794,15.6589102 6.94506278,15.554575 7.01226084,15.3586729 C7.07945891,15.1627707 6.97512366,14.9494859 6.77922154,14.8822878 Z" id="Stroke-7" fill="#42B549" fill-rule="nonzero"></path>
                <path d="M8.99244868,9.3102 L10.1314487,9.3102 C10.3534487,9.3102 10.5404487,9.3892 10.7004487,9.5512 C10.8564487,9.7102 10.9354487,9.9042 10.9354487,10.1252 C10.9354487,10.3502 10.8564487,10.5452 10.7024487,10.7052 C10.5424487,10.8662 10.3544487,10.9452 10.1314487,10.9452 L8.99244868,10.9452 L8.99244868,9.3102 Z M11.0844487,11.3422 L11.2164487,11.2202 C11.5074487,10.9202 11.6544487,10.5522 11.6544487,10.1252 C11.6544487,9.6982 11.5044487,9.3282 11.2074487,9.0272 C10.9094487,8.7262 10.5474487,8.5732 10.1314487,8.5732 L8.62844868,8.5762 C8.52644868,8.5762 8.44244868,8.6132 8.37144868,8.6872 C8.29944868,8.7592 8.26344868,8.8482 8.26344868,8.9512 L8.26344868,13.5542 C8.26344868,13.6572 8.29844868,13.7432 8.37244868,13.8212 C8.43544868,13.8852 8.52844868,13.9212 8.62744868,13.9212 C8.72644868,13.9212 8.82144868,13.8832 8.88544868,13.8182 C8.95844868,13.7452 8.99244868,13.6582 8.99244868,13.5542 L8.99244868,11.6832 L10.1314487,11.6832 C10.2124487,11.6832 10.2854487,11.6782 10.3484487,11.6702 L10.4144487,11.6612 L11.5964487,13.7472 C11.6464487,13.8312 11.7204487,13.8872 11.8294487,13.9172 C11.8504487,13.9242 11.8824487,13.9332 11.9194487,13.9332 C11.9864487,13.9332 12.0404487,13.9072 12.0874487,13.8792 C12.1784487,13.8292 12.2364487,13.7512 12.2614487,13.6532 C12.2714487,13.6122 12.2764487,13.5802 12.2764487,13.5472 C12.2764487,13.4852 12.2594487,13.4222 12.2274487,13.3682 L11.0844487,11.3422 Z" id="Fill-9" fill="#42B549"></path>
                <path d="M14.3225487,13.1833 C14.0115487,13.1833 13.7655487,13.0793 13.5455487,12.8553 C13.3645487,12.6713 13.2595487,12.4543 13.2335487,12.2223 L13.2295487,12.0103 C13.2425487,11.7193 13.3445487,11.4783 13.5455487,11.2753 C13.7595487,11.0573 14.0135487,10.9513 14.3225487,10.9513 C14.6295487,10.9513 14.8835487,11.0573 15.0965487,11.2773 C15.3145487,11.4993 15.4175487,11.7493 15.4175487,12.0643 C15.4175487,12.3783 15.3155487,12.6303 15.0975487,12.8553 C14.8825487,13.0763 14.6285487,13.1833 14.3225487,13.1833 M15.6095487,10.7523 C15.2555487,10.3913 14.8225487,10.2073 14.3225487,10.2073 C13.8215487,10.2073 13.3875487,10.3903 13.0345487,10.7523 C12.6855487,11.1093 12.5075487,11.5463 12.5015487,12.0523 L12.5015487,15.0503 C12.5015487,15.1533 12.5355487,15.2373 12.6115487,15.3173 C12.6785487,15.3863 12.7695487,15.4243 12.8655487,15.4243 C12.9635487,15.4243 13.0545487,15.3853 13.1245487,15.3153 C13.1955487,15.2413 13.2315487,15.1523 13.2315487,15.0503 L13.2315487,13.5703 L13.3785487,13.6623 C13.6585487,13.8393 13.9755487,13.9283 14.3225487,13.9283 C14.8225487,13.9283 15.2545487,13.7453 15.6065487,13.3863 C15.9625487,13.0243 16.1415487,12.5803 16.1415487,12.0693 C16.1415487,11.5573 15.9635487,11.1143 15.6095487,10.7523" id="Fill-11" fill="#42B549"></path>
            </g>
        </g>
    </g>
</svg>